<svg width="24" height="24" viewBox="0 0 24 24" fill="none" xmlns="http://www.w3.org/2000/svg">
<path d="M16.1974 23C19.7768 23 22 20.514 22 16.5128C22 14.0607 20.7461 12.4355 19.6397 11.0021C18.8307 9.95343 18.1316 9.04749 18.1316 8.05128C18.0948 7.44155 18.1939 6.83124 18.4214 6.26622C18.6489 5.7012 18.999 5.19616 19.4452 4.78908C19.6212 4.65657 19.7391 4.45877 19.7735 4.23833C19.808 4.01788 19.7561 3.79246 19.6292 3.61067C19.5029 3.42963 19.3114 3.30701 19.0968 3.26959C18.8821 3.23217 18.6617 3.283 18.4836 3.41097C17.8197 3.973 17.2927 4.68461 16.9439 5.4898C16.5952 6.295 16.4342 7.17182 16.4737 8.05128C16.4737 9.63415 17.4215 10.8616 18.3377 12.0491C19.3231 13.3268 20.3421 14.6468 20.3421 16.5128C20.3421 18.4657 19.7548 19.8644 18.6487 20.63C18.0036 21.0766 17.1819 21.3077 16.1974 21.3077C15.9775 21.3077 15.7667 21.3968 15.6112 21.5555C15.4558 21.7142 15.3684 21.9294 15.3684 22.1538C15.3684 22.3783 15.4558 22.5935 15.6112 22.7522C15.7434 22.8871 15.9157 22.9718 16.0996 22.9941C16.1319 22.998 16.1645 23 16.1974 23Z" fill="white"/>
<path d="M10.4556 2.69231C9.90295 2.69231 12.4023 6.56274 12.4023 6.56274C12.4023 6.56274 13.7714 3.25641 12.6661 1C12.1135 1 11.5608 2.69231 10.4556 2.69231Z" fill="white"/>
<path d="M8.73686 2.1282C7.60708 2.1282 6.25002 2.97436 5.42107 4.94872C4.9512 6.06784 4.31581 5.54532 4.31581 6.07692C4.31581 7.48877 5.48404 8.61216 6.93095 9.13768C7.50743 9.34706 8.12816 9.46154 8.73686 9.46154C9.72582 9.49754 10.4877 9.34134 11.2129 8.65399C11.2422 8.62617 11.418 8.40304 11.5002 8.35967C11.5039 8.35215 11.4945 8.37192 11.5 8.36122C11.6159 8.13611 12.1283 7.20156 12.4023 6.56274C12.7567 5.47528 12.1387 3.83266 11.4136 3.14532C10.6884 2.45797 9.72582 2.0922 8.73686 2.1282Z" fill="white"/>
<path d="M6.56873 6.03365C6.56873 6.03365 7.31916 6.2057 7.67804 5.83937C8.03692 5.47305 7.86837 4.70703 7.86837 4.70703C7.86837 4.70703 7.11794 4.53498 6.75905 4.90131C6.40016 5.26764 6.56873 6.03365 6.56873 6.03365Z" fill="white"/>
<path d="M2.10529 11.1538C2.10529 11.1538 3.2383 11.1514 3.37891 11.1514C3.51952 11.1514 3.94562 11.2234 4.07617 11.2767C4.20673 11.33 6.10669 12.0704 6.10669 12.0704C6.31439 10.6782 6.71438 9.82849 6.93095 9.13768C7.50743 9.34706 8.12816 9.46154 8.73686 9.46154C9.72582 9.49754 10.4877 9.34134 11.2129 8.65399C11.2422 8.62617 11.418 8.40304 11.5002 8.35967C11.5003 8.37418 11.5006 8.38863 11.501 8.40304C11.5992 11.7164 18.6842 12.4393 18.6842 20.1795C18.6842 20.3314 18.6722 20.482 18.6487 20.63C18.0036 21.0766 17.1819 21.3077 16.1974 21.3077C15.9775 21.3077 15.7667 21.3968 15.6112 21.5555C15.4558 21.7142 15.3684 21.9294 15.3684 22.1538C15.3684 22.3783 15.4558 22.5935 15.6112 22.7522C15.7434 22.8871 15.9157 22.9718 16.0996 22.9941C16.0403 22.998 15.9808 23 15.9211 23H5.42107V22.4359C5.42202 22.137 5.53877 21.8506 5.74585 21.6392C5.95292 21.4278 6.23349 21.3087 6.52633 21.3077C6.81918 21.3067 7.09975 21.1875 7.30682 20.9762C7.5139 20.7648 7.63065 20.4784 7.6316 20.1795C7.6316 20.1795 7.75095 18.7958 7.6316 17.9231C7.44807 16.5811 7.08379 16.2252 6.20898 15.2036C5.33418 14.182 4.64511 13.151 3.21055 12.8462C2.57675 12.7115 1.55266 12.8462 1.55266 12.8462C1.41465 12.8487 1.28086 12.7975 1.17847 12.7031C1.07607 12.6086 1.01274 12.4778 1.00133 12.3374C0.993986 12.1848 1.0171 12.0322 1.06926 11.889C1.12142 11.7457 1.20155 11.6148 1.30479 11.5041C1.40802 11.3934 1.53221 11.3053 1.66982 11.2451C1.80742 11.1849 1.95557 11.1538 2.10529 11.1538Z" fill="white"/>
</svg>
