<svg width="16" height="24" viewBox="0 0 16 24" fill="none" xmlns="http://www.w3.org/2000/svg">
<path fill-rule="evenodd" clip-rule="evenodd" d="M0 8C0 3.58172 3.58172 0 8 0C12.4183 0 16 3.58172 16 8C16 10.5895 14.7696 12.8917 12.8616 14.3538L13.9913 22.8685C14.0418 23.2491 13.8699 23.6251 13.549 23.8358C13.228 24.0466 12.8148 24.055 12.4855 23.8575L8 21.1662L3.5145 23.8575C3.18522 24.0551 2.7719 24.0466 2.45096 23.8358C2.13002 23.625 1.95815 23.249 2.00871 22.8683L3.1395 14.3547C1.23083 12.8926 0 10.59 0 8ZM5.01497 15.4245L4.26444 21.0751L7.4855 19.1425C7.80219 18.9525 8.19781 18.9525 8.5145 19.1425L11.7359 21.0753L10.9861 15.4241C10.0634 15.7956 9.0556 16 8 16C6.94481 16 5.93733 15.7957 5.01497 15.4245Z" fill="black"/>
</svg>
